<svg id="svg" xmlns="http://www.w3.org/2000/svg" xmlns:xlink="http://www.w3.org/1999/xlink" width="400" height="402.7972027972028" viewBox="0, 0, 400,402.7972027972028"><g id="svgg"><path id="path0" d="M192.516 2.028 C 188.199 4.741,188.112 5.293,188.112 29.871 C 188.112 56.232,189.081 59.441,197.040 59.441 C 205.576 59.441,206.288 57.140,206.291 29.535 L 206.294 6.273 203.978 3.746 C 201.010 0.507,196.107 -0.228,192.516 2.028 M272.348 16.687 C 269.349 18.516,268.996 19.198,260.357 39.860 C 251.087 62.033,251.492 60.786,252.433 64.282 C 254.101 70.476,262.444 72.992,267.104 68.706 C 269.681 66.336,286.016 27.999,286.011 24.330 C 286.004 17.576,278.121 13.167,272.348 16.687 M118.895 18.008 C 115.937 19.494,113.287 23.267,113.287 25.990 C 113.287 28.519,129.696 67.637,131.636 69.735 C 136.955 75.486,147.552 71.289,147.552 63.431 C 147.552 61.376,131.109 21.873,129.477 20.008 C 126.790 16.938,122.601 16.146,118.895 18.008 M53.764 58.659 C 50.636 61.786,50.049 65.988,52.277 69.288 C 54.158 72.075,84.701 101.347,87.002 102.569 C 92.580 105.530,99.284 100.998,99.320 94.241 L 99.340 90.559 83.761 75.302 C 61.542 53.543,59.830 52.593,53.764 58.659 M335.315 57.244 C 332.730 58.840,302.914 87.608,301.228 90.132 C 297.405 95.859,301.818 103.497,308.951 103.497 C 312.665 103.497,314.292 102.170,332.695 84.133 L 348.257 68.881 348.255 65.304 C 348.249 58.082,341.135 53.651,335.315 57.244 M187.144 67.900 C 78.725 79.336,31.590 206.476,107.781 281.971 C 184.709 358.194,319.037 312.508,330.722 206.146 C 339.365 127.481,268.567 59.313,187.144 67.900 M216.783 84.714 C 302.927 96.707,344.013 192.433,291.930 259.796 C 278.257 277.481,251.028 295.620,233.042 299.026 C 230.098 299.583,228.527 305.178,247.272 248.354 C 262.874 201.059,263.733 198.184,262.994 195.719 C 261.808 191.762,258.704 189.510,254.432 189.510 C 247.771 189.510,248.842 187.088,228.329 248.601 L 210.140 303.147 201.399 303.360 C 196.591 303.477,191.381 303.388,189.821 303.162 L 186.985 302.752 169.013 248.298 C 151.815 196.191,150.934 193.750,148.573 191.677 C 142.898 186.695,134.266 190.538,134.266 198.048 C 134.266 199.320,141.635 222.465,150.643 249.481 C 159.650 276.497,166.943 298.601,166.849 298.601 C 156.073 298.601,123.379 277.078,111.456 262.134 C 48.396 183.100,115.200 70.571,216.783 84.714 M376.224 117.747 C 369.005 120.309,334.944 135.947,333.709 137.266 C 328.211 143.135,332.140 152.448,340.114 152.448 C 342.017 152.448,380.831 135.626,384.101 133.383 C 392.569 127.578,385.888 114.316,376.224 117.747 M20.280 118.236 C 13.793 120.943,12.249 130.207,17.694 133.756 C 22.605 136.958,60.007 152.732,62.617 152.702 C 69.596 152.623,73.632 144.906,69.738 139.089 C 66.586 134.382,24.307 116.555,20.280 118.236 M153.919 134.011 C 143.905 139.001,141.969 151.178,149.931 159.092 C 160.687 169.781,178.368 162.931,178.306 148.099 C 178.255 135.811,165.312 128.333,153.919 134.011 M228.267 133.160 C 211.771 140.343,216.939 163.925,235.020 163.972 C 252.781 164.019,258.336 140.772,242.308 133.472 C 238.958 131.947,231.438 131.779,228.267 133.160 M5.123 186.335 C -0.855 188.935,-0.952 197.475,4.963 200.514 C 7.663 201.902,49.053 201.747,52.023 200.338 C 57.891 197.554,57.946 189.185,52.113 186.418 C 48.897 184.891,8.605 184.821,5.123 186.335 M348.516 186.320 C 342.552 188.915,342.398 197.323,348.259 200.354 C 351.159 201.853,391.858 201.897,395.431 200.405 C 401.352 197.931,401.429 189.246,395.554 186.458 C 392.285 184.907,352.035 184.788,348.516 186.320 M163.157 334.231 C 158.600 337.009,158.018 342.074,161.818 345.874 L 164.196 348.252 203.147 348.252 L 242.098 348.252 244.476 345.874 C 248.381 341.969,247.537 336.439,242.650 333.912 C 239.121 332.088,166.192 332.380,163.157 334.231 M163.953 360.424 C 158.353 362.863,157.914 371.550,163.267 373.990 C 166.499 375.462,240.831 375.157,243.364 373.661 C 248.537 370.605,247.841 362.756,242.187 360.394 C 238.891 359.017,167.120 359.044,163.953 360.424 M180.070 387.067 C 173.727 389.317,172.678 397.604,178.314 400.933 C 180.604 402.286,222.772 402.711,226.178 401.416 C 233.012 398.818,231.517 388.411,224.061 386.681 C 219.372 385.593,183.334 385.910,180.070 387.067 " stroke="none" fill="#000000" fill-rule="evenodd"></path></g></svg>