<svg id="svg" xmlns="http://www.w3.org/2000/svg" xmlns:xlink="http://www.w3.org/1999/xlink" width="400" height="402.7972027972028" viewBox="0, 0, 400,402.7972027972028"><g id="svgg"><path id="path0" d="M193.300 1.377 C 190.556 2.487,188.240 6.073,187.758 9.958 C 186.731 18.247,187.673 51.935,189.001 54.364 C 192.519 60.803,201.595 60.881,205.016 54.502 C 207.033 50.740,206.954 8.435,204.923 5.104 C 202.621 1.328,197.488 -0.318,193.300 1.377 M272.342 16.470 C 271.168 17.049,269.689 18.400,269.056 19.473 C 267.302 22.442,252.453 57.839,251.990 60.155 C 250.278 68.716,261.102 74.372,267.313 68.161 C 269.158 66.316,286.026 27.125,285.999 24.747 C 285.920 18.028,278.409 13.475,272.342 16.470 M119.959 17.293 C 111.038 19.559,111.272 23.890,121.638 48.360 C 131.963 72.732,134.380 75.497,141.908 71.540 C 149.131 67.743,148.889 65.363,138.857 41.584 C 129.440 19.261,129.496 19.363,125.818 17.891 C 122.980 16.756,122.335 16.690,119.959 17.293 M54.474 57.543 C 51.447 59.580,50.050 63.424,51.023 67.033 C 51.788 69.867,83.741 101.534,87.139 102.826 C 94.503 105.626,101.808 97.877,98.549 90.724 C 97.849 89.188,76.247 67.894,66.989 59.615 C 62.137 55.276,58.691 54.705,54.474 57.543 M335.450 56.977 C 331.310 59.136,300.723 89.620,299.883 92.424 C 297.038 101.917,307.974 107.003,315.902 99.874 C 325.282 91.439,346.248 70.608,347.205 68.774 C 351.064 61.375,342.840 53.122,335.450 56.977 M186.713 67.917 C 77.428 80.483,30.839 208.327,108.411 282.783 C 187.807 358.990,322.564 310.222,330.726 202.329 C 336.597 124.724,265.969 58.805,186.713 67.917 M216.783 84.702 C 321.367 99.020,350.535 231.784,261.171 286.738 C 253.084 291.711,231.366 300.830,230.254 299.718 C 230.156 299.620,237.469 277.172,246.506 249.834 C 256.585 219.344,262.937 199.081,262.937 197.416 C 262.937 192.983,260.008 190.080,255.128 189.676 C 248.808 189.151,247.460 190.837,242.639 205.301 L 238.719 217.059 234.220 218.181 C 229.314 219.405,225.932 220.973,224.514 222.681 C 223.153 224.320,219.140 224.038,216.562 222.121 C 209.129 216.596,199.085 216.258,189.345 221.204 C 181.575 225.151,179.771 225.261,175.272 222.062 C 171.539 219.408,165.642 217.822,161.546 218.372 L 159.005 218.713 154.920 206.384 C 149.999 191.537,148.542 189.510,142.781 189.510 C 138.480 189.510,135.395 191.760,134.192 195.773 C 133.431 198.314,134.155 200.718,149.987 248.213 C 159.113 275.590,166.455 298.113,166.304 298.265 C 165.682 298.887,152.911 293.703,145.772 289.931 C 87.514 259.151,68.658 188.027,104.507 134.285 C 128.704 98.012,172.555 78.647,216.783 84.702 M377.273 117.302 C 375.301 117.755,336.371 134.954,334.345 136.267 C 327.064 140.987,332.257 153.677,340.876 152.226 C 344.711 151.580,384.172 133.706,385.749 131.900 C 391.027 125.856,385.026 115.522,377.273 117.302 M19.070 118.486 C 14.291 120.634,12.574 127.069,15.586 131.538 C 17.831 134.869,59.021 153.403,62.921 152.837 C 70.288 151.767,73.621 142.929,68.551 137.907 C 66.410 135.787,27.350 118.297,23.610 117.784 C 22.355 117.611,20.312 117.928,19.070 118.486 M154.157 133.487 C 136.865 141.341,145.653 166.877,164.666 164.025 C 184.385 161.068,181.548 132.199,161.538 132.199 C 158.615 132.199,155.981 132.658,154.157 133.487 M227.622 133.472 C 218.846 137.469,215.360 149.213,220.696 156.805 C 228.712 168.211,246.444 165.960,250.752 152.989 C 255.164 139.704,240.713 127.511,227.622 133.472 M5.594 185.792 C 1.272 187.424,-0.902 192.643,1.038 196.731 C 3.220 201.329,4.164 201.480,29.345 201.252 L 51.718 201.049 53.486 199.280 C 57.128 195.637,56.869 190.057,52.922 187.128 C 50.976 185.684,9.018 184.500,5.594 185.792 M348.601 185.982 C 343.344 188.156,341.995 194.765,345.992 198.763 L 348.279 201.049 371.646 201.049 L 395.013 201.049 397.081 199.068 C 400.947 195.364,400.282 189.542,395.671 186.731 C 393.202 185.226,352.015 184.570,348.601 185.982 M205.533 233.500 C 212.853 238.137,223.358 239.270,229.622 236.099 C 232.319 234.733,232.842 234.639,232.543 235.574 C 232.342 236.201,227.193 251.661,221.101 269.930 L 210.023 303.147 200.641 303.355 C 195.481 303.469,190.259 303.380,189.037 303.158 L 186.815 302.753 175.153 267.766 C 168.739 248.524,163.666 232.604,163.880 232.390 C 164.094 232.176,165.307 232.665,166.575 233.478 C 176.404 239.774,188.193 240.203,194.534 234.494 C 195.634 233.503,200.257 231.568,201.687 231.499 C 202.038 231.482,203.769 232.383,205.533 233.500 M163.162 333.995 C 159.355 335.873,158.018 339.874,159.885 343.806 C 162.047 348.363,160.976 348.252,202.797 348.252 C 244.300 348.252,243.599 348.320,245.792 344.079 C 247.768 340.258,246.420 335.862,242.680 333.928 C 239.547 332.308,166.458 332.370,163.162 333.995 M162.866 361.040 C 158.037 364.291,157.712 370.204,162.188 373.391 C 164.160 374.795,165.006 374.825,203.026 374.825 L 241.851 374.825 243.979 373.035 C 246.776 370.681,247.505 367.053,245.813 363.911 C 243.370 359.375,244.001 359.441,202.620 359.441 L 165.242 359.441 162.866 361.040 M180.566 386.679 C 173.753 388.362,172.036 397.194,177.835 400.730 C 180.781 402.526,223.080 402.855,226.458 401.109 C 231.562 398.469,231.526 390.191,226.399 387.262 C 224.572 386.219,184.495 385.709,180.566 386.679 " stroke="none" fill="#fed136" fill-rule="evenodd"></path></g></svg>